 <svg width="51" height="70" viewBox="0 0 51 70" fill="none" xmlns="http://www.w3.org/2000/svg">
                        <path
                            d="M32.4208 69.8293C23.8223 69.8293 15.5759 66.1509 9.49583 59.6031C3.41576 53.0553 1.55321e-05 44.1746 1.52588e-05 34.9147C1.49855e-05 25.6547 3.41576 16.774 9.49583 10.2263C15.5759 3.6785 23.8223 9.93452e-07 32.4208 0V34.9147V69.8293Z"
                            fill="black" />
                        <path
                            d="M50.8996 52.2934C46.6197 52.2934 42.5151 50.4624 39.4888 47.2033C36.4624 43.9441 34.7622 39.5238 34.7622 34.9147C34.7622 30.3056 36.4624 25.8853 39.4888 22.6262C42.5151 19.367 46.6197 17.536 50.8996 17.536V34.9147V52.2934Z"
                            fill="black" />
                    </svg>